<?xml version="1.0" standalone="no"?>
<!DOCTYPE svg PUBLIC "-//W3C//DTD SVG 20010904//EN"
 "http://www.w3.org/TR/2001/REC-SVG-20010904/DTD/svg10.dtd">
<svg version="1.0" xmlns="http://www.w3.org/2000/svg"
 width="154.000000pt" height="154.000000pt" viewBox="0 0 154.000000 154.000000"
 preserveAspectRatio="xMidYMid meet">
<metadata>
Created by potrace 1.11, written by Peter Selinger 2001-2013
</metadata>
<g transform="translate(0.000000,154.000000) scale(0.100000,-0.100000)"
fill="#000000" stroke="none">
<path d="M10 1176 c0 -34 25 -151 46 -212 63 -190 183 -345 349 -454 102 -66
188 -107 268 -126 50 -13 68 -22 78 -41 l13 -25 28 31 c15 17 36 31 46 31 28
0 119 33 192 70 189 95 321 223 409 397 33 66 76 202 86 274 3 24 8 52 11 62
3 9 3 17 0 17 -3 0 -46 -60 -96 -132 -49 -73 -99 -144 -110 -158 l-20 -25 0
60 -1 60 -22 -42 c-50 -94 -89 -127 -318 -271 l-97 -60 -21 24 c-47 54 -122
55 -165 3 l-25 -30 -73 49 c-40 27 -99 64 -131 82 -79 44 -163 123 -199 187
-16 29 -31 53 -33 53 -2 0 -3 -23 -1 -51 l2 -51 -29 33 c-15 19 -64 87 -107
152 -60 88 -80 111 -80 93z"/>
</g>
</svg>
